<svg width="129" height="25" viewBox="0 0 129 25" fill="none" xmlns="http://www.w3.org/2000/svg">
<path d="M19.55 23.62C19.4 22.26 19.51 20.95 19.8 19.69L21 14.52C20.7833 13.851 20.6687 13.1532 20.66 12.45C20.66 10.77 21.46 9.57001 22.74 9.57001C23.62 9.57001 24.27 10.19 24.27 11.37C24.27 11.75 24.1967 12.1767 24.05 12.65L23.52 14.38C23.42 14.7133 23.37 15.0167 23.37 15.29C23.37 16.49 24.29 17.17 25.46 17.17C27.54 17.17 29.03 15.01 29.03 12.21C29.03 9.09001 26.99 7.10001 23.97 7.10001C20.61 7.10001 18.48 9.29001 18.48 12.33C18.48 13.56 18.86 14.7 19.59 15.48C19.35 15.88 19.09 15.96 18.71 15.96C17.51 15.96 16.37 14.26 16.37 11.96C16.37 7.97001 19.57 4.80001 24.05 4.80001C28.75 4.80001 31.71 8.08001 31.71 12.13C31.71 16.2 28.83 19.26 25.73 19.26C25.1392 19.2705 24.5541 19.1431 24.0212 18.888C23.4883 18.6328 23.0222 18.2568 22.66 17.79L22.05 20.29C21.72 21.57 21.22 22.79 20.43 23.96C22.2274 24.5201 24.1313 24.6494 25.9879 24.3376C27.8444 24.0257 29.6016 23.2814 31.1173 22.1648C32.6331 21.0482 33.8648 19.5907 34.713 17.91C35.5612 16.2293 36.0021 14.3726 36 12.49C36.0026 10.3098 35.4112 8.17012 34.2894 6.30073C33.1675 4.43134 31.5575 2.9029 29.6324 1.87959C27.7073 0.856279 25.5398 0.376766 23.3627 0.492555C21.1856 0.608345 19.0811 1.31506 17.2754 2.5368C15.4697 3.75853 14.031 5.44911 13.1137 7.42696C12.1965 9.4048 11.8354 11.5952 12.0692 13.7628C12.3031 15.9304 13.123 17.9933 14.441 19.73C15.759 21.4667 17.5253 22.8115 19.55 23.62Z" fill="#E60023"/>
<path d="M46.8262 13.8145H43.1641V11.7051H46.8262C47.4251 11.7051 47.9102 11.6074 48.2812 11.4121C48.6589 11.2103 48.9355 10.9368 49.1113 10.5918C49.2871 10.2402 49.375 9.83984 49.375 9.39062C49.375 8.95443 49.2871 8.54753 49.1113 8.16992C48.9355 7.79232 48.6589 7.48633 48.2812 7.25195C47.9102 7.01758 47.4251 6.90039 46.8262 6.90039H44.043V19H41.3574V4.78125H46.8262C47.9329 4.78125 48.877 4.97982 49.6582 5.37695C50.446 5.76758 51.0449 6.3112 51.4551 7.00781C51.8717 7.69792 52.0801 8.48568 52.0801 9.37109C52.0801 10.2891 51.8717 11.0801 51.4551 11.7441C51.0449 12.4082 50.446 12.9193 49.6582 13.2773C48.877 13.6354 47.9329 13.8145 46.8262 13.8145ZM55.7285 8.43359V19H53.1406V8.43359H55.7285ZM52.9648 5.66992C52.9648 5.28581 53.0951 4.9668 53.3555 4.71289C53.6224 4.45898 53.9805 4.33203 54.4297 4.33203C54.8789 4.33203 55.2337 4.45898 55.4941 4.71289C55.7611 4.9668 55.8945 5.28581 55.8945 5.66992C55.8945 6.04753 55.7611 6.36328 55.4941 6.61719C55.2337 6.87109 54.8789 6.99805 54.4297 6.99805C53.9805 6.99805 53.6224 6.87109 53.3555 6.61719C53.0951 6.36328 52.9648 6.04753 52.9648 5.66992ZM59.7188 10.6895V19H57.1406V8.43359H59.5625L59.7188 10.6895ZM59.3086 13.3359H58.5469C58.5534 12.5677 58.6576 11.8711 58.8594 11.2461C59.0612 10.6211 59.3444 10.084 59.709 9.63477C60.0801 9.18555 60.5195 8.84049 61.0273 8.59961C61.5352 8.35872 62.1016 8.23828 62.7266 8.23828C63.2344 8.23828 63.6934 8.3099 64.1035 8.45312C64.5137 8.59635 64.8652 8.82422 65.1582 9.13672C65.4577 9.44922 65.6855 9.85938 65.8418 10.3672C66.0046 10.8685 66.0859 11.487 66.0859 12.2227V19H63.4883V12.2031C63.4883 11.7214 63.4167 11.3405 63.2734 11.0605C63.1367 10.7806 62.9349 10.582 62.668 10.4648C62.4076 10.3477 62.0853 10.2891 61.7012 10.2891C61.304 10.2891 60.9557 10.3704 60.6562 10.5332C60.3633 10.6895 60.1159 10.9076 59.9141 11.1875C59.7188 11.4674 59.569 11.7897 59.4648 12.1543C59.3607 12.5189 59.3086 12.9128 59.3086 13.3359ZM72.3613 8.43359V10.2891H66.3066V8.43359H72.3613ZM67.9277 5.83594H70.5156V15.9531C70.5156 16.2656 70.5579 16.5065 70.6426 16.6758C70.7272 16.8451 70.8542 16.959 71.0234 17.0176C71.1927 17.0762 71.3945 17.1055 71.6289 17.1055C71.7982 17.1055 71.9544 17.0957 72.0977 17.0762C72.2409 17.0566 72.3613 17.0371 72.459 17.0176L72.4688 18.9512C72.2539 19.0228 72.0098 19.0814 71.7363 19.127C71.4694 19.1725 71.1667 19.1953 70.8281 19.1953C70.2487 19.1953 69.7409 19.0977 69.3047 18.9023C68.8685 18.7005 68.5299 18.3783 68.2891 17.9355C68.0482 17.4863 67.9277 16.8939 67.9277 16.1582V5.83594ZM77.8262 19.1953C77.0254 19.1953 76.306 19.0651 75.668 18.8047C75.0299 18.5443 74.4863 18.1829 74.0371 17.7207C73.5944 17.252 73.2526 16.7083 73.0117 16.0898C72.7773 15.4648 72.6602 14.7943 72.6602 14.0781V13.6875C72.6602 12.8737 72.7773 12.1348 73.0117 11.4707C73.2461 10.8001 73.5781 10.224 74.0078 9.74219C74.4375 9.26042 74.9518 8.88932 75.5508 8.62891C76.1497 8.36849 76.8105 8.23828 77.5332 8.23828C78.2819 8.23828 78.9427 8.36523 79.5156 8.61914C80.0885 8.86654 80.5671 9.2181 80.9512 9.67383C81.3353 10.1296 81.625 10.6764 81.8203 11.3145C82.0156 11.946 82.1133 12.6458 82.1133 13.4141V14.498H73.832V12.7207H79.5742V12.5254C79.5612 12.1152 79.4831 11.7409 79.3398 11.4023C79.1966 11.0573 78.9753 10.7839 78.6758 10.582C78.3763 10.3737 77.9889 10.2695 77.5137 10.2695C77.1296 10.2695 76.7943 10.3542 76.5078 10.5234C76.2279 10.6862 75.9935 10.9206 75.8047 11.2266C75.6224 11.526 75.4857 11.8841 75.3945 12.3008C75.3034 12.7174 75.2578 13.1797 75.2578 13.6875V14.0781C75.2578 14.5208 75.3164 14.931 75.4336 15.3086C75.5573 15.6862 75.7363 16.015 75.9707 16.2949C76.2116 16.5684 76.498 16.7832 76.8301 16.9395C77.1686 17.0892 77.5527 17.1641 77.9824 17.1641C78.5228 17.1641 79.0111 17.0599 79.4473 16.8516C79.89 16.6367 80.2741 16.321 80.5996 15.9043L81.8984 17.252C81.6771 17.5775 81.3776 17.89 81 18.1895C80.6289 18.4889 80.1797 18.7331 79.6523 18.9219C79.125 19.1042 78.5163 19.1953 77.8262 19.1953ZM85.4199 10.5918V19H82.8418V8.43359H85.2832L85.4199 10.5918ZM88.6328 8.36523L88.5938 10.7676C88.4505 10.7415 88.2878 10.722 88.1055 10.709C87.9297 10.696 87.7637 10.6895 87.6074 10.6895C87.2103 10.6895 86.862 10.7448 86.5625 10.8555C86.263 10.9596 86.0124 11.1126 85.8105 11.3145C85.6152 11.5163 85.4655 11.7637 85.3613 12.0566C85.2572 12.3431 85.1986 12.6686 85.1855 13.0332L84.6289 12.9648C84.6289 12.2943 84.6973 11.6725 84.834 11.0996C84.9707 10.5267 85.1693 10.0254 85.4297 9.5957C85.6901 9.16602 86.0156 8.83398 86.4062 8.59961C86.8034 8.35872 87.2591 8.23828 87.7734 8.23828C87.9167 8.23828 88.0697 8.2513 88.2324 8.27734C88.4017 8.29688 88.5352 8.32617 88.6328 8.36523ZM93.5996 19.1953C92.7988 19.1953 92.0794 19.0651 91.4414 18.8047C90.8034 18.5443 90.2598 18.1829 89.8105 17.7207C89.3678 17.252 89.026 16.7083 88.7852 16.0898C88.5508 15.4648 88.4336 14.7943 88.4336 14.0781V13.6875C88.4336 12.8737 88.5508 12.1348 88.7852 11.4707C89.0195 10.8001 89.3516 10.224 89.7812 9.74219C90.2109 9.26042 90.7253 8.88932 91.3242 8.62891C91.9232 8.36849 92.584 8.23828 93.3066 8.23828C94.0553 8.23828 94.7161 8.36523 95.2891 8.61914C95.862 8.86654 96.3405 9.2181 96.7246 9.67383C97.1087 10.1296 97.3984 10.6764 97.5938 11.3145C97.7891 11.946 97.8867 12.6458 97.8867 13.4141V14.498H89.6055V12.7207H95.3477V12.5254C95.3346 12.1152 95.2565 11.7409 95.1133 11.4023C94.9701 11.0573 94.7487 10.7839 94.4492 10.582C94.1497 10.3737 93.7624 10.2695 93.2871 10.2695C92.903 10.2695 92.5677 10.3542 92.2812 10.5234C92.0013 10.6862 91.7669 10.9206 91.5781 11.2266C91.3958 11.526 91.2591 11.8841 91.168 12.3008C91.0768 12.7174 91.0312 13.1797 91.0312 13.6875V14.0781C91.0312 14.5208 91.0898 14.931 91.207 15.3086C91.3307 15.6862 91.5098 16.015 91.7441 16.2949C91.985 16.5684 92.2715 16.7832 92.6035 16.9395C92.9421 17.0892 93.3262 17.1641 93.7559 17.1641C94.2962 17.1641 94.7845 17.0599 95.2207 16.8516C95.6634 16.6367 96.0475 16.321 96.373 15.9043L97.6719 17.252C97.4505 17.5775 97.151 17.89 96.7734 18.1895C96.4023 18.4889 95.9531 18.7331 95.4258 18.9219C94.8984 19.1042 94.2897 19.1953 93.5996 19.1953ZM104.426 16.1094C104.426 15.888 104.367 15.6895 104.25 15.5137C104.133 15.3379 103.911 15.1784 103.586 15.0352C103.267 14.8854 102.798 14.7454 102.18 14.6152C101.633 14.498 101.128 14.3516 100.666 14.1758C100.204 14 99.8066 13.7884 99.4746 13.541C99.1426 13.2871 98.8822 12.9909 98.6934 12.6523C98.5111 12.3073 98.4199 11.9102 98.4199 11.4609C98.4199 11.0247 98.5143 10.6146 98.7031 10.2305C98.8919 9.83984 99.1654 9.49805 99.5234 9.20508C99.8815 8.9056 100.318 8.67122 100.832 8.50195C101.346 8.32617 101.926 8.23828 102.57 8.23828C103.469 8.23828 104.24 8.38477 104.885 8.67773C105.536 8.9707 106.034 9.37435 106.379 9.88867C106.724 10.3965 106.896 10.9694 106.896 11.6074H104.318C104.318 11.3275 104.253 11.0736 104.123 10.8457C103.999 10.6178 103.807 10.4355 103.547 10.2988C103.286 10.1556 102.958 10.084 102.561 10.084C102.202 10.084 101.9 10.1426 101.652 10.2598C101.411 10.377 101.229 10.5299 101.105 10.7188C100.982 10.9076 100.92 11.1159 100.92 11.3438C100.92 11.513 100.952 11.666 101.018 11.8027C101.089 11.9329 101.203 12.0534 101.359 12.1641C101.516 12.2747 101.727 12.3757 101.994 12.4668C102.268 12.5579 102.603 12.6458 103 12.7305C103.788 12.8867 104.475 13.0951 105.061 13.3555C105.653 13.6094 106.115 13.9479 106.447 14.3711C106.779 14.7943 106.945 15.3346 106.945 15.9922C106.945 16.4609 106.844 16.8906 106.643 17.2812C106.441 17.6654 106.148 18.0007 105.764 18.2871C105.38 18.5736 104.921 18.7982 104.387 18.9609C103.853 19.1172 103.251 19.1953 102.58 19.1953C101.61 19.1953 100.79 19.0228 100.119 18.6777C99.4486 18.3262 98.9408 17.8835 98.5957 17.3496C98.2507 16.8092 98.0781 16.2493 98.0781 15.6699H100.549C100.568 16.0801 100.679 16.4089 100.881 16.6562C101.083 16.9036 101.337 17.0827 101.643 17.1934C101.955 17.2975 102.284 17.3496 102.629 17.3496C103.02 17.3496 103.348 17.2975 103.615 17.1934C103.882 17.0827 104.084 16.9362 104.221 16.7539C104.357 16.5651 104.426 16.3503 104.426 16.1094ZM112.908 8.43359V10.2891H106.854V8.43359H112.908ZM108.475 5.83594H111.062V15.9531C111.062 16.2656 111.105 16.5065 111.189 16.6758C111.274 16.8451 111.401 16.959 111.57 17.0176C111.74 17.0762 111.941 17.1055 112.176 17.1055C112.345 17.1055 112.501 17.0957 112.645 17.0762C112.788 17.0566 112.908 17.0371 113.006 17.0176L113.016 18.9512C112.801 19.0228 112.557 19.0814 112.283 19.127C112.016 19.1725 111.714 19.1953 111.375 19.1953C110.796 19.1953 110.288 19.0977 109.852 18.9023C109.415 18.7005 109.077 18.3783 108.836 17.9355C108.595 17.4863 108.475 16.8939 108.475 16.1582V5.83594Z" fill="#CC0000"/>
</svg>
